Coordinates
version=1
nRows=19
nColumns=24
inDegrees=yes

Units are S.I. units (second, meters, Newtons, ...)
Angles are in degrees.

endheader
time	pelvis_tilt	pelvis_list	pelvis_rotation	pelvis_tx	pelvis_ty	pelvis_tz	hip_flexion_r	hip_adduction_r	hip_rotation_r	knee_angle_r	ankle_angle_r	subtalar_angle_r	mtp_angle_r	hip_flexion_l	hip_adduction_l	hip_rotation_l	knee_angle_l	ankle_angle_l	subtalar_angle_l	mtp_angle_l	lumbar_extension	lumbar_bending	lumbar_rotation
      2.72000000	    -12.24145349	      9.32865290	     -4.11830435	     -2.33913603	     -0.03132321	     -0.25282005	     18.89922140	    -13.92496059	     -6.00158216	    -62.03684261	    -26.49963467	    -19.85944605	      3.11310371	     28.84501370	     10.17181289	     -6.24248326	    -21.04712771	     -0.87249912	    -16.20037255	    -12.67248490	      9.75017145	     -9.95071097	      3.66184596
      2.72500000	    -12.19763451	      9.12635497	     -4.01350708	     -2.33225306	     -0.03010713	     -0.25341463	     19.79743317	    -13.61797821	     -5.90890228	    -62.76750820	    -25.24653080	    -19.92642896	      3.53619534	     28.19094793	     10.11878056	     -6.04206722	    -20.84454239	     -0.47343402	    -16.00584885	    -12.50544003	      9.63619043	     -9.74905399	      3.47794397
      2.73000000	    -12.13863245	      8.90481186	     -3.93908308	     -2.32536888	     -0.02884387	     -0.25396234	     20.66556118	    -13.28524901	     -5.82417024	    -63.38109421	    -24.06401871	    -19.89858633	      4.00751323	     27.50876185	     10.03068508	     -5.85908909	    -20.61938143	     -0.08843341	    -15.81654537	    -12.34080717	      9.51651348	     -9.52116629	      3.32187021
      2.73500000	    -12.07156262	      8.70902638	     -3.86333683	     -2.31843739	     -0.02759421	     -0.25453271	     21.50756640	    -13.00071425	     -5.76650352	    -63.89470520	    -22.91134840	    -19.72460714	      4.66704274	     26.79931216	      9.97378891	     -5.66500313	    -20.35390294	      0.27207015	    -15.65512952	    -12.16618347	      9.40331995	     -9.31411308	      3.18743279
      2.74000000	    -11.96462022	      8.51436275	     -3.85967383	     -2.31163630	     -0.02628849	     -0.25505906	     22.31958154	    -12.68852813	     -5.61277543	    -64.29478091	    -21.96058658	    -19.46238241	      6.20392301	     26.03996933	      9.90487745	     -5.45140600	    -20.04156988	      0.47204360	    -15.68926115	    -11.99160398	      9.23494404	     -9.09103591	      3.09713486
      2.74500000	    -11.89240859	      8.19449499	     -3.70365710	     -2.30471513	     -0.02497085	     -0.25573500	     23.02748206	    -12.30803505	     -5.70362084	    -64.47734679	    -21.33166036	    -19.41371859	      8.64532724	     25.31308398	      9.75840280	     -5.12742262	    -19.77962220	      0.79617696	    -15.56189336	    -11.85372065	      9.09680725	     -8.76563464	      2.85755399
      2.75000000	    -11.81692586	      7.89233369	     -3.60133721	     -2.29790769	     -0.02369721	     -0.25627749	     23.77423102	    -11.91913954	     -5.76863755	    -64.67884616	    -20.28070157	    -19.02881454	      9.03074939	     24.59418191	      9.59527914	     -4.86961791	    -19.51190185	      1.10517988	    -15.44504082	    -11.78378380	      8.94949239	     -8.45536170	      2.66673316
      2.75500000	    -11.70226204	      7.64240381	     -3.47071521	     -2.29103305	     -0.02243244	     -0.25699504	     24.43746684	    -11.63279009	     -5.84514995	    -64.73326530	    -19.52887478	    -18.70131901	     11.08800946	     23.79638235	      9.53107204	     -4.47952575	    -19.17306312	      1.38226032	    -15.48300986	    -12.04996249	      8.77282359	     -8.18704773	      2.46629671
      2.76000000	    -11.62910616	      7.33962031	     -3.33621515	     -2.28424645	     -0.02123882	     -0.25756884	     25.13502757	    -11.26700327	     -5.97567512	    -64.75598291	    -18.49839768	    -18.23148329	     11.50202098	     23.07224151	      9.37226168	     -4.20106086	    -18.88027181	      1.67187279	    -15.38609627	    -12.00470474	      8.62605303	     -7.87977596	      2.25187673
      2.76500000	    -11.47414977	      7.10114636	     -3.21448421	     -2.27747229	     -0.02001970	     -0.25825900	     25.73138987	    -10.99309158	     -6.07670558	    -64.67719093	    -17.56699408	    -17.75610170	     12.66299202	     22.22410539	      9.31175113	     -3.82154087	    -18.49718589	      1.84080520	    -15.53265655	    -12.18783929	      8.39704199	     -7.62234458	      2.08631991
      2.77000000	    -11.44728155	      6.74954261	     -2.99313767	     -2.27071364	     -0.01892307	     -0.25891243	     26.39633845	    -10.60852121	     -6.32794434	    -64.49291749	    -16.66722033	    -17.37884476	     13.15121138	     21.54982349	      9.11246866	     -3.48352826	    -18.20924303	      2.15756622	    -15.35973291	    -12.14824814	      8.28522121	     -7.27417836	      1.76105649
      2.77500000	    -11.32443450	      6.47137925	     -2.77417049	     -2.26394880	     -0.01779918	     -0.25975480	     26.92275555	    -10.34152844	     -6.53465596	    -64.12684775	    -16.22924586	    -17.26065560	     16.31947530	     20.73618930	      9.02783383	     -3.03901358	    -17.84458896	      2.48098510	    -15.35434466	    -12.70926680	      8.08281643	     -6.98524272	      1.49537704
      2.78000000	    -11.27586163	      6.16469841	     -2.56479397	     -2.25726187	     -0.01680844	     -0.26041132	     27.54138889	    -10.00583971	     -6.76542796	    -63.79834607	    -15.27791476	    -16.85709545	     16.66656285	     20.03517177	      8.85722245	     -2.76964017	    -17.51398530	      2.74960127	    -15.21438156	    -12.66452789	      7.94943442	     -6.67728800	      1.21250832
      2.78500000	    -11.19687702	      5.87311948	     -2.32703898	     -2.25055599	     -0.01584514	     -0.26113823	     28.09137930	     -9.71635679	     -7.03675119	    -63.37740999	    -14.34895434	    -16.47572435	     17.11107524	     19.28554362	      8.71372599	     -2.45481688	    -17.15066592	      2.99827569	    -15.10604122	    -12.63622016	      7.78800049	     -6.38736979	      0.92236652
      2.79000000	    -11.09405885	      5.60905359	     -2.07126615	     -2.24383933	     -0.01493565	     -0.26192809	     28.59071022	     -9.47999521	     -7.32707273	    -62.87353448	    -13.47176525	    -16.13974148	     17.72037983	     18.50125780	      8.60144683	     -2.13816495	    -16.76554746	      3.26182798	    -14.98958085	    -12.61794884	      7.60355424	     -6.12058674	      0.64008921
      2.79500000	    -11.01273724	      5.31810512	     -1.83950174	     -2.23720129	     -0.01405886	     -0.26268914	     29.07468764	     -9.18324472	     -7.55516000	    -62.18036560	    -13.05844885	    -16.17757782	     20.22479992	     17.75122329	      8.44370476	     -1.82637340	    -16.39106471	      3.53066177	    -14.88377182	    -12.81746532	      7.43368613	     -5.82013634	      0.34356497
      2.80000000	    -10.99640581	      5.04703828	     -1.60198145	     -2.23058790	     -0.01336770	     -0.26336894	     29.64439000	     -8.90026096	     -7.79548324	    -61.54029544	    -12.23373930	    -15.90871665	     20.44881342	     17.09506563	      8.27797541	     -1.62429943	    -16.04136917	      3.80601734	    -14.67739424	    -12.74114301	      7.33241398	     -5.54463507	      0.05141192
      2.80500000	    -10.95042685	      4.79043478	     -1.35448308	     -2.22395331	     -0.01271286	     -0.26408115	     30.15281151	     -8.65113861	     -8.05496891	    -60.81727249	    -11.47066907	    -15.68929872	     20.68331624	     16.39937998	      8.12859216	     -1.40361414	    -15.67519185	      4.07309524	    -14.48746953	    -12.66131938	      7.20624020	     -5.28477148	     -0.23432905
      2.81000000	    -10.89628061	      4.55085040	     -1.10271624	     -2.21731040	     -0.01212524	     -0.26480850	     30.63086952	     -8.43041020	     -8.31862558	    -60.02142546	    -10.78484421	    -15.51984472	     20.91860318	     15.69661974	      7.99221580	     -1.19010206	    -15.30645386	      4.33323732	    -14.29479520	    -12.57282810	      7.07466926	     -5.03707342	     -0.50714050
